<svg id="Capa_1" enable-background="new 0 0 512 512" height="512" viewBox="0 0 512 512" width="512" xmlns="http://www.w3.org/2000/svg"><g><g><path d="m404.863 504.5h-296.139v-100.686c0-26.612 21.573-48.185 48.185-48.185h199.768c26.612 0 48.185 21.573 48.185 48.185v100.686z" fill="#d3e1f5"/><path d="m203.098 266.27v109.548h101.044c0-15.119 0-94.133 0-109.548z" fill="#ffcebf"/><path d="m272.693 426.843c-13.804 0-24.343 0-38.147 0l-10.477 77.657h59.102z" fill="#0055a3"/><path d="m203.098 324.99c15.083 7.974 32.273 12.495 50.522 12.495 18.249 0 35.439-4.521 50.522-12.495 0-24.796 0-50.594 0-58.72h-101.044z" fill="#ffb09e"/><path d="m361.889 161.091c-.376 0-.748.016-1.122.028-7.558-52.408-52.647-92.681-107.148-92.681-54.501 0-99.589 40.272-107.148 92.681-.373-.012-.745-.028-1.122-.028-18.41 0-33.334 14.924-33.334 33.334s14.924 33.334 33.334 33.334c.376 0 .748-.016 1.122-.028 7.558 52.408 52.646 92.68 107.147 92.68 54.501 0 99.589-40.272 107.147-92.68.373.012.745.028 1.122.028 18.41 0 33.334-14.924 33.334-33.334s-14.922-33.334-33.332-33.334z" fill="#ffcebf"/><path d="m359.178 175.894h30.42v-72.915c0-30.225-24.502-54.726-54.726-54.726h-2.176c-10.407 0-18.844 8.437-18.844 18.844v63.47c-.001 25.033 20.293 45.327 45.326 45.327z" fill="#ac5e2e"/><path d="m145.737 10.367-23.105 37.546c-17.693 28.753-18.564 64.797-2.281 94.371 7.305 13.267 21.251 21.508 36.396 21.508h112.383c24.698 0 44.719-20.022 44.719-44.719v-54.645c0-13.798-11.185-24.983-24.983-24.983h-71.506c-24.036 0-46.77-10.922-61.791-29.686-2.604-3.254-7.647-2.942-9.832.608z" fill="#ac5e2e"/><path d="m334.872 48.253h-2.176c-5.267 0-10.023 2.166-13.443 5.649 18.073 8.936 30.507 27.551 30.507 49.077v71.928c3.039.642 6.188.986 9.419.986h30.42v-72.915c-.001-30.223-24.503-54.725-54.727-54.725z" fill="#9e5528"/><path d="m356.678 355.629h-39.838c26.612 0 48.185 21.573 48.185 48.185v100.686h39.838v-100.686c0-26.612-21.573-48.185-48.185-48.185z" fill="#c0d6f2"/><path d="m272.693 426.843c-7.221 0-13.55 0-19.919 0l10.477 77.657h19.919z" fill="#004281"/><path d="m215.807 365.614 18.739 61.229h38.147l18.739-61.229c-10.945 0-64.646 0-75.625 0z" fill="#004281"/><path d="m253.62 365.614-50.522-30.767-36.669 17.647c-2.839 1.366-3.07 5.32-.411 7.009l52.508 33.327c3.225 2.047 7.445 1.539 10.093-1.214z" fill="#d3e1f5"/><path d="m253.62 365.614 50.522-30.767 36.669 17.647c2.839 1.366 3.07 5.32.411 7.009l-52.508 33.327c-3.225 2.047-7.445 1.539-10.093-1.214z" fill="#d3e1f5"/><path d="m340.811 352.494-36.669-17.647-12.561 7.649 20.774 9.997c2.839 1.366 3.07 5.32.411 7.008l-40.379 25.629 6.234 6.484c2.647 2.753 6.868 3.261 10.093 1.214l52.508-33.327c2.659-1.687 2.428-5.641-.411-7.007z" fill="#c0d6f2"/></g><g><path d="m355.884 348.129h-9.342c-.933-.967-2.025-1.792-3.273-2.393l-32.421-15.602v-17.814c6.391-3.703 12.455-8.026 18.089-12.946 19.296-16.852 32.428-39.551 37.407-64.45 20.046-2.583 35.585-19.76 35.585-40.498 0-7.314-1.948-14.399-5.625-20.652v-32.459c0-4.142-3.357-7.5-7.5-7.5s-7.5 3.358-7.5 7.5v27.081h-22.919c-20.858 0-37.827-16.969-37.827-37.827 0-7.25 0-56.8 0-63.47 0-6.255 5.089-11.344 11.344-11.344 30.63 0 49.402 22.893 49.402 47.226v3.334c0 4.142 3.357 7.5 7.5 7.5s7.5-3.358 7.5-7.5v-3.334c0-32.304-25.138-62.226-64.402-62.226-6.305 0-12.097 2.228-16.636 5.936-5.806-8.868-15.823-14.743-27.191-14.743h-71.508c-21.876 0-42.264-9.795-55.936-26.874-2.746-3.431-6.996-5.32-11.391-5.046-4.386.271-8.38 2.667-10.684 6.409l-23.104 37.546c-19.07 30.991-20.013 70.044-2.462 101.918 2.842 5.162 6.54 9.674 10.856 13.412-12.044 7.182-20.122 20.373-20.122 35.112 0 20.738 15.54 37.915 35.585 40.498 4.979 24.899 18.111 47.598 37.407 64.45 5.634 4.921 11.698 9.244 18.089 12.946v17.814l-32.421 15.602c-1.248.601-2.34 1.426-3.273 2.393h-2.994c-30.705 0-55.685 24.98-55.685 55.686v37.781c0 4.142 3.358 7.5 7.5 7.5s7.5-3.358 7.5-7.5v-37.781c0-20.814 15.911-40.686 42.808-40.686.829 1.078 1.974 2.076 2.967 2.706l52.509 33.328c.025.016.051.029.076.044 1.263.792 2.681 1.423 4.223 1.836l8.088 26.425-9.384 69.533h-101.289v-20.405c0-4.142-3.358-7.5-7.5-7.5s-7.5 3.358-7.5 7.5v27.905c0 4.142 3.358 7.5 7.5 7.5h296.139c4.143 0 7.5-3.358 7.5-7.5v-100.686c.001-30.705-24.98-55.685-55.685-55.685zm-24.772 8.403c-.569.361-47.412 30.37-47.88 29.885l-18.519-19.261 39.055-23.783zm-98.516 40.906c.527-.489 19.731-20.484 20.23-21.003.499.519 19.701 20.513 20.229 21.003l-6.703 21.906h-27.052zm-104.369-345.594 22.019-35.782c16.511 19.655 40.563 30.884 66.321 30.884h71.508c9.641 0 17.483 7.843 17.483 17.483v54.644c0 20.523-16.696 37.22-37.22 37.22h-112.383c-3.881 0-7.913-.699-11.738-2.105-.014-.005-.028-.008-.042-.013-7.565-2.792-14.032-8.217-18.047-15.509-14.951-27.153-14.147-60.422 2.099-86.822zm24.875 174.816c-.509-3.531-3.525-6.573-7.902-6.417-14.091.483-26.477-11.05-26.477-25.818 0-12.766 9.567-23.703 22.047-25.548 4.791 1.561 9.951 2.416 15.185 2.416h112.383c16.532 0 31.66-7.841 41.319-20.321.01.025.022.048.032.073 5.409 12.823 16.065 23.679 30.141 28.978 11.283 4.246 17.443 3.372 44.63 3.372 1.622 3.428 2.468 7.18 2.468 11.03 0 14.39-11.933 26.333-26.71 25.81-3.849-.124-7.123 2.643-7.668 6.425-7.126 49.41-50.219 86.251-99.725 86.251-50.146 0-92.686-37.454-99.723-86.251zm99.724 101.251c14.67 0 29.381-2.829 43.022-8.277v11l-43.022 26.2-43.022-26.199v-11c13.607 5.434 28.337 8.276 43.022 8.276zm-50.942 15.462 39.055 23.783c-.159.166-18.523 19.317-18.741 19.39-.381.123-47.32-29.8-47.658-30.014zm29.971 153.627 8.454-62.656h25.035l8.453 62.656zm164.715 0h-107.637l-9.381-69.531 8.087-26.425c1.555-.417 2.998-1.055 4.3-1.882l52.51-33.328c.004-.002.007-.005.011-.008 1-.636 2.133-1.629 2.955-2.698h8.47c22.435 0 40.686 18.251 40.686 40.686v93.186z"/><path d="m201.605 182.264c-4.142 0-7.5 3.358-7.5 7.5v24.461c0 4.142 3.358 7.5 7.5 7.5s7.5-3.358 7.5-7.5v-24.461c0-4.142-3.358-7.5-7.5-7.5z"/><path d="m304.046 221.725c4.143 0 7.5-3.358 7.5-7.5v-24.461c0-4.142-3.357-7.5-7.5-7.5s-7.5 3.358-7.5 7.5v24.461c0 4.142 3.358 7.5 7.5 7.5z"/><path d="m252.826 273.926c15.101 0 27.386-11.17 27.386-24.9 0-4.142-3.357-7.5-7.5-7.5s-7.5 3.358-7.5 7.5c0 5.459-5.557 9.9-12.386 9.9s-12.386-4.441-12.386-9.9c0-4.142-3.358-7.5-7.5-7.5s-7.5 3.358-7.5 7.5c0 13.729 12.285 24.9 27.386 24.9z"/></g></g></svg>